DataType=double
version=3
OpenSimVersion=4.5-2023-11-26-efcdfd3eb
endheader
time	EMG01_right_gast_med	EMG02_right_glut_max	EMG03_left_gast_med	EMG04_left_glut_max	EMG05_right_glut_med	EMG06_right_bic_fem	EMG07_right_rect_fem	EMG08_right_vast_lat	EMG09_right_vast_med	EMG10_right_tens_fasc_lat	EMG11_left_glut_med	EMG12_left_bic_fem	EMG13_left_rect_fem	EMG14_left_vast_lat	EMG15_left_vast_med	EMG16_left_tens_fasc_lat
0.76	0.02687493299625039	0.1100369261433359	0.2193743842174887	0.0610357116149934	0.1113748434750878	0.04066450010490583	0.018971717212418	0.02780895727358902	0.01227842955535638	0.1307976791257288	0.1223453864688832	0.04211417461954699	0.1536512703581794	0.09989507973007482	0.09252739551643303	0.1961950285105644
0.77	0.01758348957236394	0.1118876705789005	0.2248394026038328	0.06119911708109896	0.107539936528677	0.04339139107736194	0.01719562330607002	0.02661678239409617	0.0117297048349446	0.1268542396196027	0.1193102818939363	0.03837243434137225	0.1454633844792863	0.09361600926009941	0.09026844688795944	0.195410380384914
0.78	0.009636973882259823	0.1133002544826575	0.2300462108027082	0.06115860183387427	0.1033459300803522	0.04649668804770599	0.01556306751770529	0.02538923009932971	0.01110529022843231	0.1223841604035449	0.1163274952026048	0.03476959278427452	0.1372210562199211	0.08730761751104175	0.08775401419721432	0.1941386268985129
0.79	0.002983190081326727	0.1142755008643108	0.2350375150398382	0.06091237979019028	0.09884799851399861	0.04999891213172383	0.01408021908747561	0.02413822468218219	0.01041357225174029	0.1174357983717478	0.1134204439267486	0.0313306167706444	0.1290153757877529	0.08103351845192402	0.08501325819974601	0.1923813892922268
0.8	-0.002441885407443486	0.1148203122370739	0.2398637011419164	0.0604605485503373	0.09410424593422019	0.05391438502051616	0.01275199463373668	0.02287643877429514	0.009664585234291305	0.1120617527749398	0.1106085529343796	0.02807753355065858	0.120932483084807	0.07485401237702792	0.08207664676808883	0.1901439992623179
0.8100000000000001	-0.006712428624448228	0.114947439220724	0.2445815827645295	0.05980509872666193	0.08917476629798482	0.05825681431009117	0.01158217574359235	0.02161713783721967	0.008869933381284445	0.1063182378624018	0.107907098502709	0.0250293027352818	0.1130523438262863	0.06882527790556023	0.07897543863171196	0.1874354662505196
0.82	-0.009911015061554848	0.1146751272471072	0.2492528447517915	0.0589499073040235	0.08412069759984295	0.0630368826290081	0.01057353830807595	0.02037400589631335	0.008042692350432165	0.1002644571330499	0.1053271628608731	0.02220173407784436	0.105447704805402	0.06299867737871932	0.07574118209582838	0.1842684388010977
0.83	-0.01212682228892693	0.114026660979452	0.2539421967005406	0.05790071340830637	0.07900328857004379	0.06826184452131878	0.009727988015877379	0.01916095592162176	0.007197291289467801	0.09396198135210673	0.102875694642008	0.01960744813567733	0.09818323977531919	0.05742018488654269	0.07240524198726393	0.1806591500478744
0.84	-0.0134538209478005	0.1130298289745624	0.2587152614145771	0.05666507737875594	0.07388299555217751	0.07393513496990828	0.009046696390149373	0.01799192881083318	0.006349376254856627	0.08747413199229304	0.1005556677329116	0.01725587655738391	0.09131489218227067	0.0521299428738413	0.06899836657772372	0.1766273378846245
0.85	-0.01398898580676715	0.1117163326815594	0.2636362417946203	0.05525232610561311	0.06881862577085751	0.08005599378308066	0.008530231956439534	0.0168806852624005	0.005515656032538165	0.08086537285286687	0.09836632839502485	0.01515329889706505	0.08488941590386702	0.0471619500682432	0.06555030400543893	0.1721961324252803
0.86	-0.01383055707381208	0.1101211639250842	0.2687654347175524	0.05367348836099434	0.0638665411654127	0.08661911146924488	0.008178681580867779	0.01584059497503509	0.004713731537395443	0.07420071465327202	0.09630351812623822	0.01330291317654764	0.0789441107979397	0.04254388022094305	0.06208947490650669	0.1673919067292156
0.87	-0.01307638014424387	0.1082819730673038	0.2741566819274122	0.05194122330581976	0.05907993451983211	0.0936143049479521	0.007991757647733931	0.01488442759661842	0.003961910105881115	0.06754513934226408	0.09436005809018574	0.01170493768356865	0.07350674652561227	0.03829702799317408	0.05864270502928647	0.1622440896804953
0.88	-0.01182234949254504	0.106238446404508	0.2798548589517404	0.05006974408311908	0.05450818695568232	0.1010262345155462	0.007968887491943218	0.01402414966361074	0.003279006098129507	0.06096305166212021	0.09252618129852654	0.01035674161805437	0.06859566537345502	0.03443637548044536	0.05523501895820857	0.1567849414480112
0.89	-0.01016097944244746	0.1040317069479744	0.2858935036850458	0.04807473704455839	0.05019631319929255	0.1088341752555126	0.008109282337416176	0.01327073146709026	0.002684129312837134	0.05451776467267314	0.0907900011261063	0.009253002203246558	0.06422005203841517	0.03097077042320242	0.05188949384526611	0.1510492935447985
0.9	-0.008180120803385161	0.1017037481844183	0.2922926798720012	0.0459732759827149	0.04618449858860987	0.1170118556315455	0.008411983880014519	0.01263396743611361	0.002196462809954708	0.04827102377758825	0.08913800718375731	0.008385885832071095	0.06038035539752654	0.02790320504729116	0.04862717014380521	0.1450742583827298
0.91	-0.005961837638551394	0.09929690588498641	0.2990571603602891	0.04378372985928544	0.04250772966775494	0.1255273736732914	0.008875887550466937	0.01212231329526849	0.001835031842616158	0.0422825709938797	0.08755558009690036	0.007745250732211949	0.05706884451520016	0.02523118266127306	0.04546701459851272	0.1388989160372976
0.92	-0.003581453107768801	0.09685336873488662	0.306175002956094	0.0415256621413508	0.03919551846184465	0.1343431979883891	0.009499742365192583	0.01174274294134558	0.001618465715319113	0.03660974844690169	0.08602751530837677	0.007318868468458264	0.05427027900045679	0.0229471576827868	0.04242592908956564	0.1325639867269806
0.93	-0.0011067682576357	0.0944147249536065	0.3136165789205612	0.03921972004050102	0.03627171911940929	0.1434162575657565	0.01028212809517928	0.01150062767375655	0.001564754491466733	0.03130713796393936	0.08453854382418118	0.007092661360918365	0.05196267261369364	0.02103903382542189	0.03951879752208349	0.1261114963671467
